REM DIRINDEX 1\2\4,1\2\5,1\2\6,1\3\7,1\3\8,1\3\9,1\3\10
REM DIRNAME folder01,folder02,folder03,folder04,folder05,folder06,folder07,folder08,folder09,folder10
TITLE ""
FILE "b_42.mp3" MP3
  TRACK 01 AUDIO
    TITLE "0:"
    INDEX 01 00:00:00
  TRACK 02 AUDIO
    TITLE "10:cjc058_3729"
    INDEX 01 00:00:13
  TRACK 03 AUDIO
    TITLE "0:"
    INDEX 01 00:03:35
  TRACK 04 AUDIO
    TITLE "7:cjc058_3730"
    INDEX 01 00:04:03
  TRACK 05 AUDIO
    TITLE "0:"
    INDEX 01 00:05:36
  TRACK 06 AUDIO
    TITLE "8:cjc058_3731"
    INDEX 01 00:05:65
  TRACK 07 AUDIO
    TITLE "0:"
    INDEX 01 00:08:26
  TRACK 08 AUDIO
    TITLE "9:cjc058_3732"
    INDEX 01 00:08:64
  TRACK 09 AUDIO
    TITLE "0:"
    INDEX 01 00:14:11
  TRACK 10 AUDIO
    TITLE "7:cjc058_3733"
    INDEX 01 00:15:15
  TRACK 11 AUDIO
    TITLE "0:"
    INDEX 01 00:16:73
  TRACK 12 AUDIO
    TITLE "8:cjc058_3734"
    INDEX 01 00:17:27
  TRACK 13 AUDIO
    TITLE "0:"
    INDEX 01 00:18:44
  TRACK 14 AUDIO
    TITLE "9:cjc058_3735"
    INDEX 01 00:19:09
  TRACK 15 AUDIO
    TITLE "0:"
    INDEX 01 00:23:22
  TRACK 16 AUDIO
    TITLE "7:cjc058_3736"
    INDEX 01 00:24:22
  TRACK 17 AUDIO
    TITLE "0:"
    INDEX 01 00:25:39
  TRACK 18 AUDIO
    TITLE "8:cjc058_3737"
    INDEX 01 00:25:70
  TRACK 19 AUDIO
    TITLE "0:"
    INDEX 01 00:28:15
  TRACK 20 AUDIO
    TITLE "9:cjc058_3738"
    INDEX 01 00:28:57
  TRACK 21 AUDIO
    TITLE "0:"
    INDEX 01 00:32:01
  TRACK 22 AUDIO
    TITLE "7:cjc058_3739"
    INDEX 01 00:33:07
  TRACK 23 AUDIO
    TITLE "0:"
    INDEX 01 00:34:57
  TRACK 24 AUDIO
    TITLE "8:cjc058_3740"
    INDEX 01 00:35:10
  TRACK 25 AUDIO
    TITLE "0:"
    INDEX 01 00:37:38
  TRACK 26 AUDIO
    TITLE "9:cjc058_3741"
    INDEX 01 00:38:04
  TRACK 27 AUDIO
    TITLE "0:"
    INDEX 01 00:41:26
  TRACK 28 AUDIO
    TITLE "7:cjc058_3742"
    INDEX 01 00:42:27
  TRACK 29 AUDIO
    TITLE "0:"
    INDEX 01 00:43:60
  TRACK 30 AUDIO
    TITLE "8:cjc058_3743"
    INDEX 01 00:44:14
  TRACK 31 AUDIO
    TITLE "0:"
    INDEX 01 00:46:45
  TRACK 32 AUDIO
    TITLE "9:cjc058_3744"
    INDEX 01 00:47:11
  TRACK 33 AUDIO
    TITLE "0:"
    INDEX 01 00:51:16
  TRACK 34 AUDIO
    TITLE "7:cjc058_3745"
    INDEX 01 00:52:20
  TRACK 35 AUDIO
    TITLE "0:"
    INDEX 01 00:53:53
  TRACK 36 AUDIO
    TITLE "8:cjc058_3746"
    INDEX 01 00:54:09
  TRACK 37 AUDIO
    TITLE "0:"
    INDEX 01 00:56:72
  TRACK 38 AUDIO
    TITLE "9:cjc058_3747"
    INDEX 01 00:57:39
  TRACK 39 AUDIO
    TITLE "0:"
    INDEX 01 01:02:44
  TRACK 40 AUDIO
    TITLE "7:cjc058_3748"
    INDEX 01 01:03:49
  TRACK 41 AUDIO
    TITLE "0:"
    INDEX 01 01:05:01
  TRACK 42 AUDIO
    TITLE "8:cjc058_3749"
    INDEX 01 01:05:30
  TRACK 43 AUDIO
    TITLE "0:"
    INDEX 01 01:07:68
  TRACK 44 AUDIO
    TITLE "9:cjc058_3750"
    INDEX 01 01:08:35
  TRACK 45 AUDIO
    TITLE "0:"
    INDEX 01 01:14:10
  TRACK 46 AUDIO
    TITLE "7:cjc058_3751"
    INDEX 01 01:15:15
  TRACK 47 AUDIO
    TITLE "0:"
    INDEX 01 01:17:10
  TRACK 48 AUDIO
    TITLE "8:cjc058_3752"
    INDEX 01 01:17:39
  TRACK 49 AUDIO
    TITLE "0:"
    INDEX 01 01:18:68
  TRACK 50 AUDIO
    TITLE "9:cjc058_3753"
    INDEX 01 01:19:34
  TRACK 51 AUDIO
    TITLE "0:"
    INDEX 01 01:25:51
  TRACK 52 AUDIO
    TITLE "7:cjc058_3754"
    INDEX 01 01:26:58
  TRACK 53 AUDIO
    TITLE "0:"
    INDEX 01 01:28:35
  TRACK 54 AUDIO
    TITLE "8:cjc058_3755"
    INDEX 01 01:28:65
  TRACK 55 AUDIO
    TITLE "0:"
    INDEX 01 01:31:20
  TRACK 56 AUDIO
    TITLE "9:cjc058_3756"
    INDEX 01 01:31:61
  TRACK 57 AUDIO
    TITLE "0:"
    INDEX 01 01:38:06
  TRACK 58 AUDIO
    TITLE "7:cjc058_3757"
    INDEX 01 01:39:12
  TRACK 59 AUDIO
    TITLE "0:"
    INDEX 01 01:40:60
  TRACK 60 AUDIO
    TITLE "8:cjc058_3758"
    INDEX 01 01:41:14
  TRACK 61 AUDIO
    TITLE "0:"
    INDEX 01 01:43:39
  TRACK 62 AUDIO
    TITLE "9:cjc058_3759"
    INDEX 01 01:44:05
  TRACK 63 AUDIO
    TITLE "0:"
    INDEX 01 01:49:26
  TRACK 64 AUDIO
    TITLE "7:cjc058_3760"
    INDEX 01 01:50:29
  TRACK 65 AUDIO
    TITLE "0:"
    INDEX 01 01:51:68
  TRACK 66 AUDIO
    TITLE "8:cjc058_3761"
    INDEX 01 01:52:24
  TRACK 67 AUDIO
    TITLE "0:"
    INDEX 01 01:54:62
  TRACK 68 AUDIO
    TITLE "9:cjc058_3762"
    INDEX 01 01:55:24
  TRACK 69 AUDIO
    TITLE "0:"
    INDEX 01 02:00:22
  TRACK 70 AUDIO
    TITLE "7:cjc058_3763"
    INDEX 01 02:01:23
  TRACK 71 AUDIO
    TITLE "0:"
    INDEX 01 02:02:54
  TRACK 72 AUDIO
    TITLE "8:cjc058_3764"
    INDEX 01 02:03:10
  TRACK 73 AUDIO
    TITLE "0:"
    INDEX 01 02:05:33
  TRACK 74 AUDIO
    TITLE "9:cjc058_3765"
    INDEX 01 02:05:74
  TRACK 75 AUDIO
    TITLE "0:"
    INDEX 01 02:09:58
  TRACK 76 AUDIO
    TITLE "7:cjc058_3766"
    INDEX 01 02:10:63
  TRACK 77 AUDIO
    TITLE "0:"
    INDEX 01 02:12:68
  TRACK 78 AUDIO
    TITLE "8:cjc058_3767"
    INDEX 01 02:13:24
  TRACK 79 AUDIO
    TITLE "0:"
    INDEX 01 02:15:64
  TRACK 80 AUDIO
    TITLE "9:cjc058_3768"
    INDEX 01 02:16:30
  TRACK 81 AUDIO
    TITLE "0:"
    INDEX 01 02:19:42
